<svg xmlns="http://www.w3.org/2000/svg" xmlns:xlink="http://www.w3.org/1999/xlink" contentStyleType="text/css" data-diagram-type="DESCRIPTION" height="2620px" preserveAspectRatio="none" style="width:1803px;height:2620px;background:#FFFFFF;" version="1.1" viewBox="0 0 1803 2620" width="1803px" zoomAndPan="magnify"><?plantuml 1.2026.7beta1?><defs/><g><g class="title" data-source-line="1"><text fill="#000000" font-family="sans-serif" font-size="14" font-weight="700" lengthAdjust="spacing" textLength="453.79" x="671.22" y="22.9951">Diagrama Geral de Casos de Uso &#8212; Para&#237;ba Social (SEDH)</text></g><!--cluster Sistema Para?ba Social--><g class="cluster" data-qualified-name="Sistema Para.ba Social" data-source-line="17" id="ent0007"><rect fill="none" height="1806" rx="2.5" ry="2.5" style="stroke:#181818;stroke-width:1;" width="1602.41" x="186.82" y="392.9469"/><text fill="#000000" font-family="sans-serif" font-size="14" font-weight="700" lengthAdjust="spacing" textLength="180.5576" x="897.7462" y="407.942">Sistema Para&#237;ba Social</text></g><!--cluster Acesso e Seguran?a--><g class="cluster" data-qualified-name="Sistema Para.ba Social.Acesso e Seguran.a" data-source-line="19" id="ent0008"><rect fill="none" height="284" rx="2.5" ry="2.5" style="stroke:#181818;stroke-width:1;" width="213.86" x="1082.36" y="1711.9469"/><text fill="#000000" font-family="sans-serif" font-size="14" font-weight="700" lengthAdjust="spacing" textLength="157.7871" x="1110.3964" y="1726.942">Acesso e Seguran&#231;a</text></g><!--cluster ?rea do Cidad?o--><g class="cluster" data-qualified-name="Sistema Para.ba Social..rea do Cidad.o" data-source-line="25" id="ent0012"><rect fill="none" height="336" rx="2.5" ry="2.5" style="stroke:#181818;stroke-width:1;" width="714.74" x="210.82" y="1838.9469"/><text fill="#000000" font-family="sans-serif" font-size="14" font-weight="700" lengthAdjust="spacing" textLength="129.6982" x="503.3409" y="1853.942">&#193;rea do Cidad&#227;o</text></g><!--cluster Painel de Indicadores--><g class="cluster" data-qualified-name="Sistema Para.ba Social.Painel de Indicadores" data-source-line="32" id="ent0017"><rect fill="none" height="413" rx="2.5" ry="2.5" style="stroke:#181818;stroke-width:1;" width="637.72" x="247.48" y="1111.9469"/><text fill="#000000" font-family="sans-serif" font-size="14" font-weight="700" lengthAdjust="spacing" textLength="170.1465" x="481.2668" y="1126.942">Painel de Indicadores</text></g><!--cluster Programas Sociais--><g class="cluster" data-qualified-name="Sistema Para.ba Social.Programas Sociais" data-source-line="40" id="ent0023"><rect fill="none" height="526" rx="2.5" ry="2.5" style="stroke:#181818;stroke-width:1;" width="716.67" x="1048.56" y="435.9469"/><text fill="#000000" font-family="sans-serif" font-size="14" font-weight="700" lengthAdjust="spacing" textLength="145.7764" x="1334.0068" y="450.942">Programas Sociais</text></g><!--cluster Relat?rios--><g class="cluster" data-qualified-name="Sistema Para.ba Social.Relat.rios" data-source-line="49" id="ent0030"><rect fill="none" height="211" rx="2.5" ry="2.5" style="stroke:#181818;stroke-width:1;" width="693.58" x="221.28" y="876.9469"/><text fill="#000000" font-family="sans-serif" font-size="14" font-weight="700" lengthAdjust="spacing" textLength="80.4863" x="527.8268" y="891.942">Relat&#243;rios</text></g><!--cluster Administra??o & Plataforma--><g class="cluster" data-qualified-name="Sistema Para.ba Social.Administra..o . Plataforma" data-source-line="55" id="ent0034"><rect fill="none" height="417" rx="2.5" ry="2.5" style="stroke:#181818;stroke-width:1;" width="264.83" x="639.59" y="435.9469"/><text fill="#000000" font-family="sans-serif" font-size="14" font-weight="700" lengthAdjust="spacing" textLength="223.002" x="660.504" y="450.942">Administra&#231;&#227;o &amp; Plataforma</text></g><!--entity UC1--><g class="entity" data-qualified-name="Sistema Para.ba Social.Acesso e Seguran.a.UC1" data-source-line="20" id="ent0009"><ellipse cx="1189.2929" cy="1866.9475" fill="#F1F1F1" rx="81.0029" ry="18.6006" style="stroke:#181818;stroke-width:0.5;"/><text fill="#000000" font-family="sans-serif" font-size="14" lengthAdjust="spacing" textLength="133.0342" x="1122.7758" y="1871.5959">UC1: Realizar login</text></g><!--entity UC2--><g class="entity" data-qualified-name="Sistema Para.ba Social.Acesso e Seguran.a.UC2" data-source-line="21" id="ent0010"><ellipse cx="1189.2882" cy="1767.9425" fill="#F1F1F1" rx="90.9282" ry="20.5856" style="stroke:#181818;stroke-width:0.5;"/><text fill="#000000" font-family="sans-serif" font-size="14" lengthAdjust="spacing" textLength="155.8389" x="1111.3687" y="1772.5909">UC2: Controlar acesso</text></g><!--entity UC3--><g class="entity" data-qualified-name="Sistema Para.ba Social.Acesso e Seguran.a.UC3" data-source-line="22" id="ent0011"><ellipse cx="1189.2898" cy="1962.9448" fill="#F1F1F1" rx="74.6898" ry="17.338" style="stroke:#181818;stroke-width:0.5;"/><text fill="#000000" font-family="sans-serif" font-size="14" lengthAdjust="spacing" textLength="117.9746" x="1130.3025" y="1967.5933">UC3: Validar CPF</text></g><!--entity UC19--><g class="entity" data-qualified-name="Sistema Para.ba Social..rea do Cidad.o.UC19" data-source-line="26" id="ent0013"><ellipse cx="771.9952" cy="2128.9479" fill="#F1F1F1" rx="137.5552" ry="29.911" style="stroke:#181818;stroke-width:0.5;"/><text fill="#000000" font-family="sans-serif" font-size="14" lengthAdjust="spacing" textLength="256.4775" x="643.7565" y="2133.5964">UC19: Acessar info sobre programas</text></g><!--entity UC15--><g class="entity" data-qualified-name="Sistema Para.ba Social..rea do Cidad.o.UC15" data-source-line="27" id="ent0014"><ellipse cx="353.1394" cy="2131.9468" fill="#F1F1F1" rx="125.4494" ry="27.4899" style="stroke:#181818;stroke-width:0.5;"/><text fill="#000000" font-family="sans-serif" font-size="14" lengthAdjust="spacing" textLength="230.9453" x="237.6668" y="2136.5952">UC15: Apresentar eixos da SEDH</text></g><!--entity UC20--><g class="entity" data-qualified-name="Sistema Para.ba Social..rea do Cidad.o.UC20" data-source-line="28" id="ent0015"><ellipse cx="353.1436" cy="1901.9496" fill="#F1F1F1" rx="126.3136" ry="27.6627" style="stroke:#181818;stroke-width:0.5;"/><text fill="#000000" font-family="sans-serif" font-size="14" lengthAdjust="spacing" textLength="232.7773" x="236.7549" y="1906.598">UC20: Inscrever-se em programa</text></g><!--entity UC21--><g class="entity" data-qualified-name="Sistema Para.ba Social..rea do Cidad.o.UC21" data-source-line="29" id="ent0016"><ellipse cx="353.1363" cy="2016.9481" fill="#F1F1F1" rx="124.1063" ry="27.2213" style="stroke:#181818;stroke-width:0.5;"/><text fill="#000000" font-family="sans-serif" font-size="14" lengthAdjust="spacing" textLength="228.0947" x="239.0889" y="2021.5966">UC21: Solicitar suporte/melhoria</text></g><!--entity UC4--><g class="entity" data-qualified-name="Sistema Para.ba Social.Painel de Indicadores.UC4" data-source-line="33" id="ent0018"><ellipse cx="353.1426" cy="1325.9474" fill="#F1F1F1" rx="89.6526" ry="20.3305" style="stroke:#181818;stroke-width:0.5;"/><text fill="#000000" font-family="sans-serif" font-size="14" lengthAdjust="spacing" textLength="152.9541" x="276.6655" y="1330.5958">UC4: Visualizar painel</text></g><!--entity UC5--><g class="entity" data-qualified-name="Sistema Para.ba Social.Painel de Indicadores.UC5" data-source-line="34" id="ent0019"><ellipse cx="771.9979" cy="1164.9465" fill="#F1F1F1" rx="78.0979" ry="18.0196" style="stroke:#181818;stroke-width:0.5;"/><text fill="#000000" font-family="sans-serif" font-size="14" lengthAdjust="spacing" textLength="126.1709" x="708.9125" y="1169.5949">UC5: Filtrar dados</text></g><!--entity UC6--><g class="entity" data-qualified-name="Sistema Para.ba Social.Painel de Indicadores.UC6" data-source-line="35" id="ent0020"><ellipse cx="771.9993" cy="1469.9427" fill="#F1F1F1" rx="95.3793" ry="21.4759" style="stroke:#181818;stroke-width:0.5;"/><text fill="#000000" font-family="sans-serif" font-size="14" lengthAdjust="spacing" textLength="165.8193" x="689.0897" y="1474.5912">UC6: Visualizar gr&#225;ficos</text></g><!--entity UC7--><g class="entity" data-qualified-name="Sistema Para.ba Social.Painel de Indicadores.UC7" data-source-line="36" id="ent0021"><ellipse cx="771.9965" cy="1366.9462" fill="#F1F1F1" rx="97.1965" ry="21.8393" style="stroke:#181818;stroke-width:0.5;"/><text fill="#000000" font-family="sans-serif" font-size="14" lengthAdjust="spacing" textLength="169.8594" x="687.0668" y="1371.5946">UC7: Identificar padr&#245;es</text></g><!--entity UC8--><g class="entity" data-qualified-name="Sistema Para.ba Social.Painel de Indicadores.UC8" data-source-line="37" id="ent0022"><ellipse cx="771.9975" cy="1263.9484" fill="#F1F1F1" rx="92.2575" ry="20.8515" style="stroke:#181818;stroke-width:0.5;"/><text fill="#000000" font-family="sans-serif" font-size="14" lengthAdjust="spacing" textLength="158.833" x="692.581" y="1268.5968">UC8: Consolidar dados</text></g><!--entity UC9--><g class="entity" data-qualified-name="Sistema Para.ba Social.Programas Sociais.UC9" data-source-line="41" id="ent0024"><ellipse cx="1189.2947" cy="713.9438" fill="#F1F1F1" rx="110.2847" ry="24.4569" style="stroke:#181818;stroke-width:0.5;"/><text fill="#000000" font-family="sans-serif" font-size="14" lengthAdjust="spacing" textLength="198.4951" x="1090.0471" y="718.5922">UC9: Acompanhar execu&#231;&#227;o</text></g><!--entity UC10--><g class="entity" data-qualified-name="Sistema Para.ba Social.Programas Sociais.UC10" data-source-line="42" id="ent0025"><ellipse cx="1609.125" cy="756.9479" fill="#F1F1F1" rx="140.105" ry="30.421" style="stroke:#181818;stroke-width:0.5;"/><text fill="#000000" font-family="sans-serif" font-size="14" lengthAdjust="spacing" textLength="261.8232" x="1478.2134" y="761.5963">UC10: Visualizar p&#225;gina do programa</text></g><!--entity UC11--><g class="entity" data-qualified-name="Sistema Para.ba Social.Programas Sociais.UC11" data-source-line="43" id="ent0026"><ellipse cx="1189.2884" cy="924.9466" fill="#F1F1F1" rx="92.2484" ry="20.8497" style="stroke:#181818;stroke-width:0.5;"/><text fill="#000000" font-family="sans-serif" font-size="14" lengthAdjust="spacing" textLength="158.8125" x="1109.8822" y="929.595">UC11: Visualizar mapa</text></g><!--entity UC12--><g class="entity" data-qualified-name="Sistema Para.ba Social.Programas Sociais.UC12" data-source-line="44" id="ent0027"><ellipse cx="1189.2877" cy="601.9424" fill="#F1F1F1" rx="124.7277" ry="27.3455" style="stroke:#181818;stroke-width:0.5;"/><text fill="#000000" font-family="sans-serif" font-size="14" lengthAdjust="spacing" textLength="229.4141" x="1074.5807" y="606.5908">UC12: Visualizar dados por perfil</text></g><!--entity UC13--><g class="entity" data-qualified-name="Sistema Para.ba Social.Programas Sociais.UC13" data-source-line="45" id="ent0028"><ellipse cx="1189.294" cy="820.9497" fill="#F1F1F1" rx="101.514" ry="22.7028" style="stroke:#181818;stroke-width:0.5;"/><text fill="#000000" font-family="sans-serif" font-size="14" lengthAdjust="spacing" textLength="179.3887" x="1099.5996" y="825.5981">UC13: Visualizar rankings</text></g><!--entity UC14--><g class="entity" data-qualified-name="Sistema Para.ba Social.Programas Sociais.UC14" data-source-line="46" id="ent0029"><ellipse cx="1189.2902" cy="492.9509" fill="#F1F1F1" rx="97.0702" ry="21.814" style="stroke:#181818;stroke-width:0.5;"/><text fill="#000000" font-family="sans-serif" font-size="14" lengthAdjust="spacing" textLength="169.5791" x="1104.5006" y="497.5993">UC14: Avaliar inscri&#231;&#245;es</text></g><!--entity UC16--><g class="entity" data-qualified-name="Sistema Para.ba Social.Relat.rios.UC16" data-source-line="50" id="ent0031"><ellipse cx="771.9957" cy="939.948" fill="#F1F1F1" rx="126.8557" ry="27.7711" style="stroke:#181818;stroke-width:0.5;"/><text fill="#000000" font-family="sans-serif" font-size="14" lengthAdjust="spacing" textLength="233.9258" x="655.0328" y="944.5965">UC16: Gerar relat&#243;rio autom&#225;tico</text></g><!--entity UC17--><g class="entity" data-qualified-name="Sistema Para.ba Social.Relat.rios.UC17" data-source-line="51" id="ent0032"><ellipse cx="353.1379" cy="935.9465" fill="#F1F1F1" rx="109.1979" ry="24.2396" style="stroke:#181818;stroke-width:0.5;"/><text fill="#000000" font-family="sans-serif" font-size="14" lengthAdjust="spacing" textLength="196.1436" x="255.0661" y="940.5949">UC17: Personalizar relat&#243;rio</text></g><!--entity UC18--><g class="entity" data-qualified-name="Sistema Para.ba Social.Relat.rios.UC18" data-source-line="52" id="ent0033"><ellipse cx="353.1368" cy="1045.9482" fill="#F1F1F1" rx="115.8568" ry="25.5714" style="stroke:#181818;stroke-width:0.5;"/><text fill="#000000" font-family="sans-serif" font-size="14" lengthAdjust="spacing" textLength="210.4922" x="247.8907" y="1050.5967">UC18: Emitir relat&#243;rio em PDF</text></g><!--entity UC22--><g class="entity" data-qualified-name="Sistema Para.ba Social.Administra..o . Plataforma.UC22" data-source-line="56" id="ent0035"><ellipse cx="771.9999" cy="597.9429" fill="#F1F1F1" rx="101.4299" ry="22.686" style="stroke:#181818;stroke-width:0.5;"/><text fill="#000000" font-family="sans-serif" font-size="14" lengthAdjust="spacing" textLength="179.2041" x="682.3979" y="602.5913">UC22: Gerenciar usu&#225;rios</text></g><!--entity UC23--><g class="entity" data-qualified-name="Sistema Para.ba Social.Administra..o . Plataforma.UC23" data-source-line="57" id="ent0036"><ellipse cx="771.9977" cy="492.9444" fill="#F1F1F1" rx="99.6877" ry="22.3375" style="stroke:#181818;stroke-width:0.5;"/><text fill="#000000" font-family="sans-serif" font-size="14" lengthAdjust="spacing" textLength="175.3691" x="684.3131" y="497.5929">UC23: Configurar ajustes</text></g><!--entity UC24--><g class="entity" data-qualified-name="Sistema Para.ba Social.Administra..o . Plataforma.UC24" data-source-line="58" id="ent0037"><ellipse cx="771.9981" cy="702.9485" fill="#F1F1F1" rx="100.8081" ry="22.5616" style="stroke:#181818;stroke-width:0.5;"/><text fill="#000000" font-family="sans-serif" font-size="14" lengthAdjust="spacing" textLength="177.8369" x="683.0796" y="707.5969">UC24: Instalar app m&#243;vel</text></g><!--entity UC25--><g class="entity" data-qualified-name="Sistema Para.ba Social.Administra..o . Plataforma.UC25" data-source-line="59" id="ent0038"><ellipse cx="772.0049" cy="810.9498" fill="#F1F1F1" rx="116.4149" ry="25.683" style="stroke:#181818;stroke-width:0.5;"/><text fill="#000000" font-family="sans-serif" font-size="14" lengthAdjust="spacing" textLength="211.6885" x="666.1606" y="815.5983">UC25: Sincronizar com Sheets</text></g><!--entity Cidadao--><g class="entity" data-qualified-name="Cidadao" data-source-line="10" id="ent0001"><ellipse cx="65.4111" cy="2186.2969" fill="#F1F1F1" rx="8" ry="8" style="stroke:#181818;stroke-width:0.5;"/><path d="M65.4111,2194.2969 L65.4111,2221.2969 M52.4111,2202.2969 L78.4111,2202.2969 M65.4111,2221.2969 L52.4111,2236.2969 M65.4111,2221.2969 L78.4111,2236.2969" fill="none" style="stroke:#181818;stroke-width:0.5;"/><text fill="#000000" font-family="sans-serif" font-size="14" lengthAdjust="spacing" textLength="57.1621" x="36.83" y="2250.792">Cidad&#227;o</text></g><!--entity Servidor--><g class="entity" data-qualified-name="Servidor" data-source-line="11" id="ent0002"><ellipse cx="65.4111" cy="669.2969" fill="#F1F1F1" rx="8" ry="8" style="stroke:#181818;stroke-width:0.5;"/><path d="M65.4111,677.2969 L65.4111,704.2969 M52.4111,685.2969 L78.4111,685.2969 M65.4111,704.2969 L52.4111,719.2969 M65.4111,704.2969 L78.4111,719.2969" fill="none" style="stroke:#181818;stroke-width:0.5;"/><text fill="#000000" font-family="sans-serif" font-size="14" lengthAdjust="spacing" textLength="118.8223" x="6" y="733.792">Servidor / Gestor</text></g><!--entity Assistente--><g class="entity" data-qualified-name="Assistente" data-source-line="12" id="ent0003"><ellipse cx="353.1324" cy="51.2969" fill="#F1F1F1" rx="8" ry="8" style="stroke:#181818;stroke-width:0.5;"/><path d="M353.1324,59.2969 L353.1324,86.2969 M340.1324,67.2969 L366.1324,67.2969 M353.1324,86.2969 L340.1324,101.2969 M353.1324,86.2969 L366.1324,101.2969" fill="none" style="stroke:#181818;stroke-width:0.5;"/><text fill="#000000" font-family="sans-serif" font-size="14" lengthAdjust="spacing" textLength="118.3848" x="293.94" y="115.792">Assistente Social</text></g><!--entity Admin--><g class="entity" data-qualified-name="Admin" data-source-line="13" id="ent0004"><ellipse cx="353.14" cy="309.2969" fill="#F1F1F1" rx="8" ry="8" style="stroke:#181818;stroke-width:0.5;"/><path d="M353.14,317.2969 L353.14,344.2969 M340.14,325.2969 L366.14,325.2969 M353.14,344.2969 L340.14,359.2969 M353.14,344.2969 L366.14,359.2969" fill="none" style="stroke:#181818;stroke-width:0.5;"/><text fill="#000000" font-family="sans-serif" font-size="14" lengthAdjust="spacing" textLength="99.0801" x="303.6" y="373.792">Administrador</text></g><!--entity Clerk--><g class="entity" data-qualified-name="Clerk" data-source-line="64" id="ent0039"><ellipse cx="1609.1241" cy="2239.4537" fill="#F1F1F1" rx="8" ry="8" style="stroke:#181818;stroke-width:0.5;"/><path d="M1609.1241,2247.4537 L1609.1241,2274.4537 M1596.1241,2255.4537 L1622.1241,2255.4537 M1609.1241,2274.4537 L1596.1241,2289.4537 M1609.1241,2274.4537 L1622.1241,2289.4537" fill="none" style="stroke:#181818;stroke-width:0.5;"/><text fill="#000000" font-family="sans-serif" font-size="14" lengthAdjust="spacing" textLength="84.3281" x="1566.96" y="2303.9489">Clerk (Auth)</text><text fill="#000000" font-family="sans-serif" font-size="14" font-style="italic" lengthAdjust="spacing" textLength="67.7441" x="1575.252" y="2227.652">&#171;system&#187;</text></g><!--entity Sheets--><g class="entity" data-qualified-name="Sheets" data-source-line="65" id="ent0040"><ellipse cx="1189.2844" cy="2539.4537" fill="#F1F1F1" rx="8" ry="8" style="stroke:#181818;stroke-width:0.5;"/><path d="M1189.2844,2547.4537 L1189.2844,2574.4537 M1176.2844,2555.4537 L1202.2844,2555.4537 M1189.2844,2574.4537 L1176.2844,2589.4537 M1189.2844,2574.4537 L1202.2844,2589.4537" fill="none" style="stroke:#181818;stroke-width:0.5;"/><text fill="#000000" font-family="sans-serif" font-size="14" lengthAdjust="spacing" textLength="101.5889" x="1138.49" y="2603.9489">Google Sheets</text><text fill="#000000" font-family="sans-serif" font-size="14" font-style="italic" lengthAdjust="spacing" textLength="67.7441" x="1155.4124" y="2527.652">&#171;system&#187;</text></g><!--reverse link Servidor to Assistente--><g class="link" data-entity-1="ent0002" data-entity-2="ent0003" data-link-type="extension" data-source-line="15" id="lnk6"><path d="M77.2659,642.804 C100.9759,520.134 169.82,163.9469 169.82,163.9469 C169.82,163.9469 240.15,131.9369 293.45,107.6669" fill="none" id="Servidor-backto-Assistente" style="stroke:#181818;stroke-width:1;"/><polygon fill="none" points="73.85,660.4769,83.1568,643.9426,71.3749,641.6653,73.85,660.4769" style="stroke:#181818;stroke-width:1;stroke-linejoin:miter;stroke-miterlimit:10;"/></g><!--link Cidadao to UC1--><g class="link" data-entity-1="ent0001" data-entity-2="ent0009" data-link-type="dependency" data-source-line="68" id="lnk41"><path d="M94.4,2241.6569 C125.02,2269.7969 169.82,2310.9469 169.82,2310.9469 C169.82,2310.9469 589.45,2310.9469 589.45,2310.9469 C589.45,2310.9469 933.56,2181.9469 933.56,2181.9469 C933.56,2181.9469 1019.56,2039.9469 1019.56,2039.9469 C1019.56,2039.9469 1040.56,1915.9469 1040.56,1915.9469 C1040.56,1915.9469 1093.8843,1898.2611 1137.2043,1883.8911" fill="none" id="Cidadao-to-UC1" style="stroke:#181818;stroke-width:1;"/><polygon fill="#181818" points="1141.95,1882.3169,1132.1483,1881.3539,1137.2043,1883.8911,1134.6671,1888.9471,1141.95,1882.3169" style="stroke:#181818;stroke-width:1;stroke-linejoin:miter;stroke-miterlimit:10;"/></g><!--link Cidadao to UC19--><g class="link" data-entity-1="ent0001" data-entity-2="ent0013" data-link-type="dependency" data-source-line="69" id="lnk42"><path d="M94.4,2237.5969 C125.02,2261.2869 169.82,2295.9469 169.82,2295.9469 C169.82,2295.9469 589.45,2295.9469 589.45,2295.9469 C589.45,2295.9469 683.1603,2209.7521 735.2803,2161.8021" fill="none" id="Cidadao-to-UC19" style="stroke:#181818;stroke-width:1;"/><polygon fill="#181818" points="738.96,2158.4169,729.6284,2161.5666,735.2803,2161.8021,735.0448,2167.4541,738.96,2158.4169" style="stroke:#181818;stroke-width:1;stroke-linejoin:miter;stroke-miterlimit:10;"/></g><!--link Cidadao to UC20--><g class="link" data-entity-1="ent0001" data-entity-2="ent0015" data-link-type="dependency" data-source-line="70" id="lnk43"><path d="M83.36,2177.3469 C114.76,2105.8269 178.82,1959.9469 178.82,1959.9469 C178.82,1959.9469 229.6786,1942.9339 277.8986,1926.7939" fill="none" id="Cidadao-to-UC20" style="stroke:#181818;stroke-width:1;"/><polygon fill="#181818" points="282.64,1925.2069,272.8358,1924.2704,277.8986,1926.7939,275.375,1931.8567,282.64,1925.2069" style="stroke:#181818;stroke-width:1;stroke-linejoin:miter;stroke-miterlimit:10;"/></g><!--link Cidadao to UC21--><g class="link" data-entity-1="ent0001" data-entity-2="ent0016" data-link-type="dependency" data-source-line="71" id="lnk44"><path d="M94.49,2180.7369 C127.78,2138.9669 178.82,2074.9469 178.82,2074.9469 C178.82,2074.9469 230.4483,2057.6733 278.8983,2041.4633" fill="none" id="Cidadao-to-UC21" style="stroke:#181818;stroke-width:1;"/><polygon fill="#181818" points="283.64,2039.8769,273.8359,2038.9391,278.8983,2041.4633,276.3742,2046.5258,283.64,2039.8769" style="stroke:#181818;stroke-width:1;stroke-linejoin:miter;stroke-miterlimit:10;"/></g><!--link Cidadao to UC15--><g class="link" data-entity-1="ent0001" data-entity-2="ent0014" data-link-type="dependency" data-source-line="72" id="lnk45"><path d="M94.33,2207.7469 C136.17,2195.4369 211.8431,2173.1973 271.8031,2155.5673" fill="none" id="Cidadao-to-UC15" style="stroke:#181818;stroke-width:1;"/><polygon fill="#181818" points="276.6,2154.1569,266.8372,2152.8581,271.8031,2155.5673,269.0939,2160.5332,276.6,2154.1569" style="stroke:#181818;stroke-width:1;stroke-linejoin:miter;stroke-miterlimit:10;"/></g><!--link Cidadao to UC24--><g class="link" data-entity-1="ent0001" data-entity-2="ent0037" data-link-type="dependency" data-source-line="73" id="lnk46"><path d="M94.16,2214.1469 C202.29,2207.1169 589.45,2181.9469 589.45,2181.9469 C589.45,2181.9469 631.59,754.9469 631.59,754.9469 C631.59,754.9469 674.4554,738.9647 714.0154,724.2047" fill="none" id="Cidadao-to-UC24" style="stroke:#181818;stroke-width:1;"/><polygon fill="#181818" points="718.7,722.4569,708.8695,721.8553,714.0154,724.2047,711.6661,729.3506,718.7,722.4569" style="stroke:#181818;stroke-width:1;stroke-linejoin:miter;stroke-miterlimit:10;"/></g><!--link Servidor to UC4--><g class="link" data-entity-1="ent0002" data-entity-2="ent0018" data-link-type="dependency" data-source-line="77" id="lnk47"><path d="M77.29,737.2769 C105.5,836.6569 178.82,1094.9469 178.82,1094.9469 C178.82,1094.9469 291.8891,1245.6576 334.0591,1301.8576" fill="none" id="Servidor-to-UC4" style="stroke:#181818;stroke-width:1;"/><polygon fill="#181818" points="337.06,1305.8569,334.8578,1296.2574,334.0591,1301.8576,328.4589,1301.0588,337.06,1305.8569" style="stroke:#181818;stroke-width:1;stroke-linejoin:miter;stroke-miterlimit:10;"/></g><!--link Servidor to UC9--><g class="link" data-entity-1="ent0002" data-entity-2="ent0024" data-link-type="dependency" data-source-line="78" id="lnk48"><path d="M76.49,660.5869 C104.08,555.5369 178.82,270.9469 178.82,270.9469 C178.82,270.9469 479.45,270.9469 479.45,270.9469 C479.45,270.9469 933.56,373.9469 933.56,373.9469 C933.56,373.9469 1019.56,593.9469 1019.56,593.9469 C1019.56,593.9469 1040.56,658.9469 1040.56,658.9469 C1040.56,658.9469 1085.2442,675.5924 1126.9042,691.1024" fill="none" id="Servidor-to-UC9" style="stroke:#181818;stroke-width:1;"/><polygon fill="#181818" points="1131.59,692.8469,1124.5512,685.9581,1126.9042,691.1024,1121.76,693.4554,1131.59,692.8469" style="stroke:#181818;stroke-width:1;stroke-linejoin:miter;stroke-miterlimit:10;"/></g><!--link Servidor to UC16--><g class="link" data-entity-1="ent0002" data-entity-2="ent0031" data-link-type="dependency" data-source-line="79" id="lnk49"><path d="M125.27,719.0869 C254.76,763.3769 559.0391,867.4487 697.3291,914.7487" fill="none" id="Servidor-to-UC16" style="stroke:#181818;stroke-width:1;"/><polygon fill="#181818" points="702.06,916.3669,694.8389,909.6695,697.3291,914.7487,692.2498,917.239,702.06,916.3669" style="stroke:#181818;stroke-width:1;stroke-linejoin:miter;stroke-miterlimit:10;"/></g><!--link Servidor to UC24--><g class="link" data-entity-1="ent0002" data-entity-2="ent0037" data-link-type="dependency" data-source-line="80" id="lnk50"><path d="M125.27,699.2869 C245.75,699.9669 516.6301,701.5087 665.8201,702.3487" fill="none" id="Servidor-to-UC24" style="stroke:#181818;stroke-width:1;"/><polygon fill="#181818" points="670.82,702.3769,661.8427,698.3263,665.8201,702.3487,661.7976,706.3261,670.82,702.3769" style="stroke:#181818;stroke-width:1;stroke-linejoin:miter;stroke-miterlimit:10;"/></g><!--link Assistente to UC14--><g class="link" data-entity-1="ent0003" data-entity-2="ent0029" data-link-type="dependency" data-source-line="82" id="lnk51"><path d="M412.6,88.2469 C574.98,108.4969 1019.56,163.9469 1019.56,163.9469 C1019.56,163.9469 1136.8385,392.6378 1174.6685,466.4078" fill="none" id="Assistente-to-UC14" style="stroke:#181818;stroke-width:1;"/><polygon fill="#181818" points="1176.95,470.8569,1176.4025,461.0232,1174.6685,466.4078,1169.2839,464.6737,1176.95,470.8569" style="stroke:#181818;stroke-width:1;stroke-linejoin:miter;stroke-miterlimit:10;"/></g><!--link Admin to UC1--><g class="link" data-entity-1="ent0004" data-entity-2="ent0009" data-link-type="dependency" data-source-line="84" id="lnk52"><path d="M403.04,348.1469 C542.73,374.4269 933.56,447.9469 933.56,447.9469 C933.56,447.9469 1019.56,755.9469 1019.56,755.9469 C1019.56,755.9469 1040.56,1818.9469 1040.56,1818.9469 C1040.56,1818.9469 1093.1545,1836.0424 1136.3845,1850.0824" fill="none" id="Admin-to-UC1" style="stroke:#181818;stroke-width:1;"/><polygon fill="#181818" points="1141.14,1851.6269,1133.8157,1845.0425,1136.3845,1850.0824,1131.3446,1852.6512,1141.14,1851.6269" style="stroke:#181818;stroke-width:1;stroke-linejoin:miter;stroke-miterlimit:10;"/></g><!--link Admin to UC22--><g class="link" data-entity-1="ent0004" data-entity-2="ent0035" data-link-type="dependency" data-source-line="85" id="lnk53"><path d="M403.1,375.3069 C482.75,434.4469 631.59,544.9469 631.59,544.9469 C631.59,544.9469 674.7763,561.3701 714.4163,576.4401" fill="none" id="Admin-to-UC22" style="stroke:#181818;stroke-width:1;"/><polygon fill="#181818" points="719.09,578.2169,712.0989,571.2797,714.4163,576.4401,709.256,578.7576,719.09,578.2169" style="stroke:#181818;stroke-width:1;stroke-linejoin:miter;stroke-miterlimit:10;"/></g><!--link Admin to UC23--><g class="link" data-entity-1="ent0004" data-entity-2="ent0036" data-link-type="dependency" data-source-line="86" id="lnk54"><path d="M402.94,357.8669 C453.27,377.3669 524.45,404.9469 524.45,404.9469 C524.45,404.9469 640.2809,446.2963 712.8009,472.1763" fill="none" id="Admin-to-UC23" style="stroke:#181818;stroke-width:1;"/><polygon fill="#181818" points="717.51,473.8569,710.378,467.0646,712.8009,472.1763,707.6892,474.5992,717.51,473.8569" style="stroke:#181818;stroke-width:1;stroke-linejoin:miter;stroke-miterlimit:10;"/></g><!--link UC1 to Clerk--><g class="link" data-entity-1="ent0009" data-entity-2="ent0039" data-link-type="dependency" data-source-line="89" id="lnk55"><path d="M1231.49,1883.2669 C1267.48,1897.5169 1314.02,1915.9469 1314.02,1915.9469 C1314.02,1915.9469 1484.9362,2116.4419 1565.2162,2210.6119" fill="none" id="UC1-to-Clerk" style="stroke:#181818;stroke-width:1;"/><polygon fill="#181818" points="1568.46,2214.4169,1565.6652,2204.9729,1565.2162,2210.6119,1559.5772,2210.1629,1568.46,2214.4169" style="stroke:#181818;stroke-width:1;stroke-linejoin:miter;stroke-miterlimit:10;"/></g><!--link UC2 to Clerk--><g class="link" data-entity-1="ent0010" data-entity-2="ent0039" data-link-type="dependency" data-source-line="90" id="lnk56"><path d="M1235.31,1786.1469 C1270.68,1800.4369 1314.02,1817.9469 1314.02,1817.9469 C1314.02,1817.9469 1424.02,1959.9469 1424.02,1959.9469 C1424.02,1959.9469 1525.2307,2125.4417 1576.9507,2209.9817" fill="none" id="UC2-to-Clerk" style="stroke:#181818;stroke-width:1;"/><polygon fill="#181818" points="1579.56,2214.2469,1578.2753,2204.4822,1576.9507,2209.9817,1571.4511,2208.6571,1579.56,2214.2469" style="stroke:#181818;stroke-width:1;stroke-linejoin:miter;stroke-miterlimit:10;"/></g><!--link UC25 to Sheets--><g class="link" data-entity-1="ent0038" data-entity-2="ent0040" data-link-type="dependency" data-source-line="91" id="lnk57"><path d="M821.61,834.5669 C868.87,857.5169 933.56,888.9469 933.56,888.9469 C933.56,888.9469 954.56,2039.9469 954.56,2039.9469 C954.56,2039.9469 1107.9234,2381.8149 1165.2934,2509.6949" fill="none" id="UC25-to-Sheets" style="stroke:#181818;stroke-width:1;"/><polygon fill="#181818" points="1167.34,2514.2569,1167.3057,2504.4081,1165.2934,2509.6949,1160.0066,2507.6826,1167.34,2514.2569" style="stroke:#181818;stroke-width:1;stroke-linejoin:miter;stroke-miterlimit:10;"/></g><!--link UC4 to UC1--><g class="link" data-entity-1="ent0018" data-entity-2="ent0009" data-link-type="dependency" data-source-line="94" id="lnk58"><path d="M369.85,1346.3969 C428.54,1422.7569 631.59,1686.9469 631.59,1686.9469 C631.59,1686.9469 1001.4425,1806.5385 1136.0625,1850.0685" fill="none" id="UC4-to-UC1" style="stroke:#181818;stroke-width:1;stroke-dasharray:7,7;"/><polygon fill="#181818" points="1140.82,1851.6069,1133.4872,1845.0319,1136.0625,1850.0685,1131.0259,1852.6438,1140.82,1851.6069" style="stroke:#181818;stroke-width:1;stroke-linejoin:miter;stroke-miterlimit:10;"/><text fill="#000000" font-family="sans-serif" font-size="13" lengthAdjust="spacing" textLength="63.0068" x="740.5" y="1683.0138">&#171;include&#187;</text></g><!--link UC4 to UC2--><g class="link" data-entity-1="ent0018" data-entity-2="ent0010" data-link-type="dependency" data-source-line="95" id="lnk59"><path d="M379.99,1345.7069 C448.87,1398.3369 631.59,1537.9469 631.59,1537.9469 C631.59,1537.9469 1019.56,1688.9469 1019.56,1688.9469 C1019.56,1688.9469 1093.8818,1723.7466 1143.7718,1747.1066" fill="none" id="UC4-to-UC2" style="stroke:#181818;stroke-width:1;stroke-dasharray:7,7;"/><polygon fill="#181818" points="1148.3,1749.2269,1141.8454,1741.7879,1143.7718,1747.1066,1138.4531,1749.033,1148.3,1749.2269" style="stroke:#181818;stroke-width:1;stroke-linejoin:miter;stroke-miterlimit:10;"/><text fill="#000000" font-family="sans-serif" font-size="13" lengthAdjust="spacing" textLength="63.0068" x="740.5" y="1534.0138">&#171;include&#187;</text></g><!--link UC4 to UC5--><g class="link" data-entity-1="ent0018" data-entity-2="ent0019" data-link-type="dependency" data-source-line="96" id="lnk60"><path d="M398.1,1308.0469 C476.33,1276.1869 631.59,1212.9469 631.59,1212.9469 C631.59,1212.9469 681.6624,1195.7148 722.5524,1181.6348" fill="none" id="UC4-to-UC5" style="stroke:#181818;stroke-width:1;stroke-dasharray:7,7;"/><polygon fill="#181818" points="727.28,1180.0069,717.4681,1179.155,722.5524,1181.6348,720.0727,1186.7191,727.28,1180.0069" style="stroke:#181818;stroke-width:1;stroke-linejoin:miter;stroke-miterlimit:10;"/><text fill="#000000" font-family="sans-serif" font-size="13" lengthAdjust="spacing" textLength="63.0068" x="525.45" y="1228.0138">&#171;include&#187;</text></g><!--link UC4 to UC6--><g class="link" data-entity-1="ent0018" data-entity-2="ent0020" data-link-type="dependency" data-source-line="97" id="lnk61"><path d="M393.64,1344.5069 C443.95,1368.1369 524.45,1405.9469 524.45,1405.9469 C524.45,1405.9469 630.2604,1433.4208 703.3104,1452.3808" fill="none" id="UC4-to-UC6" style="stroke:#181818;stroke-width:1;stroke-dasharray:7,7;"/><polygon fill="#181818" points="708.15,1453.6369,700.4435,1447.5041,703.3104,1452.3808,698.4337,1455.2476,708.15,1453.6369" style="stroke:#181818;stroke-width:1;stroke-linejoin:miter;stroke-miterlimit:10;"/><text fill="#000000" font-family="sans-serif" font-size="13" lengthAdjust="spacing" textLength="63.0068" x="525.45" y="1402.0138">&#171;include&#187;</text></g><!--link UC4 to UC7--><g class="link" data-entity-1="ent0018" data-entity-2="ent0021" data-link-type="dependency" data-source-line="98" id="lnk62"><path d="M410.85,1341.9369 C460.39,1355.8969 524.45,1373.9469 524.45,1373.9469 C524.45,1373.9469 589.45,1373.9469 589.45,1373.9469 C589.45,1373.9469 626.8737,1372.5095 670.7137,1370.8195" fill="none" id="UC4-to-UC7" style="stroke:#181818;stroke-width:1;stroke-dasharray:7,7;"/><polygon fill="#181818" points="675.71,1370.6269,666.5626,1366.9765,670.7137,1370.8195,666.8708,1374.9706,675.71,1370.6269" style="stroke:#181818;stroke-width:1;stroke-linejoin:miter;stroke-miterlimit:10;"/><text fill="#000000" font-family="sans-serif" font-size="13" lengthAdjust="spacing" textLength="63.0068" x="525.45" y="1370.0138">&#171;include&#187;</text></g><!--link UC4 to UC8--><g class="link" data-entity-1="ent0018" data-entity-2="ent0022" data-link-type="dependency" data-source-line="99" id="lnk63"><path d="M429.56,1315.0569 C498.39,1305.1069 589.45,1291.9469 589.45,1291.9469 C589.45,1291.9469 640.1684,1284.1287 689.8584,1276.4687" fill="none" id="UC4-to-UC8" style="stroke:#181818;stroke-width:1;stroke-dasharray:7,7;"/><polygon fill="#181818" points="694.8,1275.7069,685.2956,1273.1248,689.8584,1276.4687,686.5145,1281.0314,694.8,1275.7069" style="stroke:#181818;stroke-width:1;stroke-linejoin:miter;stroke-miterlimit:10;"/><text fill="#000000" font-family="sans-serif" font-size="13" lengthAdjust="spacing" textLength="63.0068" x="525.45" y="1288.0138">&#171;include&#187;</text></g><!--link UC4 to UC25--><g class="link" data-entity-1="ent0018" data-entity-2="ent0038" data-link-type="dependency" data-source-line="100" id="lnk64"><path d="M376.27,1305.8169 C434.85,1252.5469 589.45,1111.9469 589.45,1111.9469 C589.45,1111.9469 631.59,888.9469 631.59,888.9469 C631.59,888.9469 682.7064,860.348 723.6764,837.428" fill="none" id="UC4-to-UC25" style="stroke:#181818;stroke-width:1;stroke-dasharray:7,7;"/><polygon fill="#181818" points="728.04,834.9869,718.2326,835.8901,723.6764,837.428,722.1385,842.8718,728.04,834.9869" style="stroke:#181818;stroke-width:1;stroke-linejoin:miter;stroke-miterlimit:10;"/><text fill="#000000" font-family="sans-serif" font-size="13" lengthAdjust="spacing" textLength="63.0068" x="525.45" y="1108.0138">&#171;include&#187;</text></g><!--link UC22 to UC2--><g class="link" data-entity-1="ent0035" data-entity-2="ent0010" data-link-type="dependency" data-source-line="102" id="lnk65"><path d="M830.97,616.7269 C876.96,631.6169 933.56,649.9469 933.56,649.9469 C933.56,649.9469 954.56,872.9469 954.56,872.9469 C954.56,872.9469 1146.4967,1607.9291 1181.5867,1742.3091" fill="none" id="UC22-to-UC2" style="stroke:#181818;stroke-width:1;stroke-dasharray:7,7;"/><polygon fill="#181818" points="1182.85,1747.1469,1184.4463,1737.4282,1181.5867,1742.3091,1176.7059,1739.4495,1182.85,1747.1469" style="stroke:#181818;stroke-width:1;stroke-linejoin:miter;stroke-miterlimit:10;"/><text fill="#000000" font-family="sans-serif" font-size="13" lengthAdjust="spacing" textLength="63.0068" x="955.56" y="869.0138">&#171;include&#187;</text></g><!--link UC9 to UC10--><g class="link" data-entity-1="ent0024" data-entity-2="ent0025" data-link-type="dependency" data-source-line="104" id="lnk66"><path d="M1290.1,724.2269 C1347.56,730.1369 1415.3363,737.1151 1476.7563,743.4351" fill="none" id="UC9-to-UC10" style="stroke:#181818;stroke-width:1;stroke-dasharray:7,7;"/><polygon fill="#181818" points="1481.73,743.9469,1473.1867,739.0467,1476.7563,743.4351,1472.3678,747.0046,1481.73,743.9469" style="stroke:#181818;stroke-width:1;stroke-linejoin:miter;stroke-miterlimit:10;"/><text fill="#000000" font-family="sans-serif" font-size="13" lengthAdjust="spacing" textLength="63.0068" x="1360.02" y="728.0138">&#171;include&#187;</text></g><!--link UC16 to UC9--><g class="link" data-entity-1="ent0031" data-entity-2="ent0024" data-link-type="dependency" data-source-line="105" id="lnk67"><path d="M824.25,914.4169 C871.23,891.0069 933.56,859.9469 933.56,859.9469 C933.56,859.9469 1040.56,767.9469 1040.56,767.9469 C1040.56,767.9469 1084.5738,751.8632 1126.0538,736.7032" fill="none" id="UC16-to-UC9" style="stroke:#181818;stroke-width:1;stroke-dasharray:7,7;"/><polygon fill="#181818" points="1130.75,734.9869,1120.9238,734.3194,1126.0538,736.7032,1123.6699,741.8333,1130.75,734.9869" style="stroke:#181818;stroke-width:1;stroke-linejoin:miter;stroke-miterlimit:10;"/><text fill="#000000" font-family="sans-serif" font-size="13" lengthAdjust="spacing" textLength="63.0068" x="955.56" y="784.0138">&#171;include&#187;</text></g><!--link UC20 to UC1--><g class="link" data-entity-1="ent0015" data-entity-2="ent0009" data-link-type="dependency" data-source-line="107" id="lnk68"><path d="M477.67,1896.7669 C651.48,1889.4769 958.2544,1876.6066 1104.0544,1870.4866" fill="none" id="UC20-to-UC1" style="stroke:#181818;stroke-width:1;stroke-dasharray:7,7;"/><polygon fill="#181818" points="1109.05,1870.2769,1099.8902,1866.6578,1104.0544,1870.4866,1100.2257,1874.6508,1109.05,1870.2769" style="stroke:#181818;stroke-width:1;stroke-linejoin:miter;stroke-miterlimit:10;"/><text fill="#000000" font-family="sans-serif" font-size="13" lengthAdjust="spacing" textLength="63.0068" x="740.5" y="1875.0138">&#171;include&#187;</text></g><!--link UC20 to UC3--><g class="link" data-entity-1="ent0015" data-entity-2="ent0011" data-link-type="dependency" data-source-line="108" id="lnk69"><path d="M464.61,1915.1969 C638.03,1935.9969 954.56,1973.9469 954.56,1973.9469 C954.56,1973.9469 1019.56,1973.9469 1019.56,1973.9469 C1019.56,1973.9469 1065.7606,1970.9424 1111.7406,1967.9424" fill="none" id="UC20-to-UC3" style="stroke:#181818;stroke-width:1;stroke-dasharray:7,7;"/><polygon fill="#181818" points="1116.73,1967.6169,1107.4887,1964.2113,1111.7406,1967.9424,1108.0095,1972.1944,1116.73,1967.6169" style="stroke:#181818;stroke-width:1;stroke-linejoin:miter;stroke-miterlimit:10;"/><text fill="#000000" font-family="sans-serif" font-size="13" lengthAdjust="spacing" textLength="63.0068" x="740.5" y="1932.0138">&#171;include&#187;</text></g><!--link UC19 to UC1--><g class="link" data-entity-1="ent0013" data-entity-2="ent0009" data-link-type="dependency" data-source-line="110" id="lnk70"><path d="M831.42,2101.6569 C877.33,2080.2169 933.56,2053.9469 933.56,2053.9469 C933.56,2053.9469 1040.56,1915.9469 1040.56,1915.9469 C1040.56,1915.9469 1093.8843,1898.2611 1137.2043,1883.8911" fill="none" id="UC19-to-UC1" style="stroke:#181818;stroke-width:1;stroke-dasharray:7,7;"/><polygon fill="#181818" points="1141.95,1882.3169,1132.1483,1881.3539,1137.2043,1883.8911,1134.6671,1888.9471,1141.95,1882.3169" style="stroke:#181818;stroke-width:1;stroke-linejoin:miter;stroke-miterlimit:10;"/><text fill="#000000" font-family="sans-serif" font-size="13" lengthAdjust="spacing" textLength="63.0068" x="955.56" y="1942.0138">&#171;include&#187;</text></g><!--link UC17 to UC16--><g class="link" data-entity-1="ent0032" data-entity-2="ent0031" data-link-type="dependency" data-source-line="114" id="lnk71"><path d="M462.58,936.9869 C518.42,937.5269 581.8202,938.1396 640.0102,938.6896" fill="none" id="UC17-to-UC16" style="stroke:#181818;stroke-width:1;stroke-dasharray:7,7;"/><polygon fill="#181818" points="645.01,938.7369,636.0482,934.652,640.0102,938.6896,635.9726,942.6516,645.01,938.7369" style="stroke:#181818;stroke-width:1;stroke-linejoin:miter;stroke-miterlimit:10;"/><text fill="#000000" font-family="sans-serif" font-size="13" lengthAdjust="spacing" textLength="61.1851" x="526.45" y="934.0138">&#171;extend&#187;</text></g><!--link UC18 to UC16--><g class="link" data-entity-1="ent0033" data-entity-2="ent0031" data-link-type="dependency" data-source-line="115" id="lnk72"><path d="M430.6,1026.5069 C503.46,1007.9769 608.0342,981.389 683.0342,962.319" fill="none" id="UC18-to-UC16" style="stroke:#181818;stroke-width:1;stroke-dasharray:7,7;"/><polygon fill="#181818" points="687.88,961.0869,678.1718,959.4281,683.0342,962.319,680.1432,967.1814,687.88,961.0869" style="stroke:#181818;stroke-width:1;stroke-linejoin:miter;stroke-miterlimit:10;"/><text fill="#000000" font-family="sans-serif" font-size="13" lengthAdjust="spacing" textLength="61.1851" x="526.45" y="983.0138">&#171;extend&#187;</text></g><!--link UC11 to UC10--><g class="link" data-entity-1="ent0026" data-entity-2="ent0025" data-link-type="dependency" data-source-line="117" id="lnk73"><path d="M1235.8,906.6469 C1309.51,877.0169 1450.731,820.2322 1536.381,785.7922" fill="none" id="UC11-to-UC10" style="stroke:#181818;stroke-width:1;stroke-dasharray:7,7;"/><polygon fill="#181818" points="1541.02,783.9269,1531.1775,783.5733,1536.381,785.7922,1534.1621,790.9957,1541.02,783.9269" style="stroke:#181818;stroke-width:1;stroke-linejoin:miter;stroke-miterlimit:10;"/><text fill="#000000" font-family="sans-serif" font-size="13" lengthAdjust="spacing" textLength="61.1851" x="1361.02" y="832.0138">&#171;extend&#187;</text></g><!--link UC12 to UC10--><g class="link" data-entity-1="ent0027" data-entity-2="ent0025" data-link-type="dependency" data-source-line="118" id="lnk74"><path d="M1254.2,625.6569 C1330.44,653.9469 1452.8321,699.348 1532.1721,728.778" fill="none" id="UC12-to-UC10" style="stroke:#181818;stroke-width:1;stroke-dasharray:7,7;"/><polygon fill="#181818" points="1536.86,730.5169,1529.8129,723.6366,1532.1721,728.778,1527.0307,731.1372,1536.86,730.5169" style="stroke:#181818;stroke-width:1;stroke-linejoin:miter;stroke-miterlimit:10;"/><text fill="#000000" font-family="sans-serif" font-size="13" lengthAdjust="spacing" textLength="61.1851" x="1361.02" y="662.0138">&#171;extend&#187;</text></g><!--link UC13 to UC10--><g class="link" data-entity-1="ent0028" data-entity-2="ent0025" data-link-type="dependency" data-source-line="119" id="lnk75"><path d="M1274.09,808.1169 C1337.1,798.4669 1419.2076,785.8835 1488.6476,775.2535" fill="none" id="UC13-to-UC10" style="stroke:#181818;stroke-width:1;stroke-dasharray:7,7;"/><polygon fill="#181818" points="1493.59,774.4969,1484.0884,771.9048,1488.6476,775.2535,1485.2989,779.8127,1493.59,774.4969" style="stroke:#181818;stroke-width:1;stroke-linejoin:miter;stroke-miterlimit:10;"/><text fill="#000000" font-family="sans-serif" font-size="13" lengthAdjust="spacing" textLength="61.1851" x="1361.02" y="784.0138">&#171;extend&#187;</text></g><!--link UC21 to UC19--><g class="link" data-entity-1="ent0016" data-entity-2="ent0013" data-link-type="dependency" data-source-line="121" id="lnk76"><path d="M433.04,2038.1469 C504.68,2057.3969 605.3113,2084.4292 679.3213,2104.3192" fill="none" id="UC21-to-UC19" style="stroke:#181818;stroke-width:1;stroke-dasharray:7,7;"/><polygon fill="#181818" points="684.15,2105.6169,676.4966,2099.4181,679.3213,2104.3192,674.4203,2107.144,684.15,2105.6169" style="stroke:#181818;stroke-width:1;stroke-linejoin:miter;stroke-miterlimit:10;"/><text fill="#000000" font-family="sans-serif" font-size="13" lengthAdjust="spacing" textLength="61.1851" x="526.45" y="2059.0138">&#171;extend&#187;</text></g><!--link UC15 to UC19--><g class="link" data-entity-1="ent0014" data-entity-2="ent0013" data-link-type="dependency" data-source-line="122" id="lnk77"><path d="M478.93,2131.0569 C527.86,2130.6969 579.1701,2130.3328 629.2101,2129.9728" fill="none" id="UC15-to-UC19" style="stroke:#181818;stroke-width:1;stroke-dasharray:7,7;"/><polygon fill="#181818" points="634.21,2129.9369,625.1815,2126.0017,629.2101,2129.9728,625.239,2134.0015,634.21,2129.9369" style="stroke:#181818;stroke-width:1;stroke-linejoin:miter;stroke-miterlimit:10;"/><text fill="#000000" font-family="sans-serif" font-size="13" lengthAdjust="spacing" textLength="61.1851" x="526.45" y="2127.0138">&#171;extend&#187;</text></g><?plantuml-src TLRDSjis4BxhANPyQEs3796IR4kJyOp7TjBSDD6aTvY4PCGam050rqwRcVGT-WAU7dBgATCdu9lqIVe156cA47sGoTrliN_VBcY5pJZT2BRLB6VqdckMKShfcXbbtCCde-Y_Rt_HYcbM_NF7QAqI0Spn-lRcbvFHAECRIrQH5jjxIwdGFB52oP5v4BA0JKu5InxObg_jCpmvDPFRZ7S0cP3SFXUS2fKzkvUEJggK6rxGsQGZr4m-EE5YCXhzJ5TMQMvefKLUlMYXp8Wb4D7HjKXPMlsjZeWPyYzCDRerruyYnTCRv6mWyg16sg2kZ176ScdvBcsFUfMsk3GN4ZBDqjr9NZ8QTGuObyNuZyjN5wEs58Z6WL3-Nf6FwFVHY9e2mat23Tg1OFYsH16gxyn127-buGapm7owZfRqaRDCV66QChKLqWS4UHyOB-bQIQjL1YJpP--WSHywNTAlE385y7hrReUQ0lLrBy3gJyqPfOfUIn-6jrYIJmHd2RbHPDITHk-ryXGqJRIBm70EmmAjHZbXoyMJOoXg1I8sHlCWnycIFaYJQFx8zHWodhUkccGdWH5Ak5QPI8HpPCf2QSlVv3oxLrgqPb6G_eg1l7vyFiXK98uCt1memGpL5ARSzQZmLhjJPtqiadudCZ1B8zTKDUK94ZtREtEhgvUDI5huMHz-ZhAaAAG0oiUGwkfVti3F-_0BJnMZQWfq0xa8gz1qicQnE5G1pm6L5qpUkrO-yQIilZUZ2dNG-yb-oQeNyDephTVCA6Xc5EsPvgneiS54HF4UrkU9hGI7N6z4qwCe68zekcVdzfEGsvRAqm0F1bmz0krd0EmKoFwr_D4iAEf7dZ5R_N3hxT1CeVjkTSDrYoDMMeMDQ463vjo01X5uiEBQADc4tjetDW4N8f3XDXTMx7d3NArkciqGXQnuNP6-qVGJhM3BDahdXvPO7FkCk4nSZKfJrgkzcRsW0_7KCtGZt6B4DljSOgEsyA01ySol1SlywYiAogiVZ-qGni4KnXZ3jP29LjAN2TobzJtdjdKnznb_xLn8jq-MQzcvZZAk7-ZughJt9_MLv0Lltvfdj_qlBnlWUwNShT0vltxiGk76KIB1LSjop35uUeExr_q_hlsVZ7PN7et7btxzzzuNFG7sO4yGcCpxY9dFrnVRhRrCv0N_mkZHpyAolUpgsuMvL3Qbz46xJOAh7VEBiWhiG7DAxgmGWIwKCdNzX_ddweMCum-pc30W39mnL0QdP6NAKPhMQHtZh2zOz0KOYvx4vTMzkckO4peMjmNjle6IUw_JGotojAdl-Wu_S1IDK_MRXANd12HnA9ctefeEXnnqwu3KwVJKHqhB0Kqyg9aFQiu6DUU3celX2FgENAhnG7ZGBPgS9i6HqTbEjpXmv6Im5grg6ff5Ym6pWxNdwAXCeGMFGLlBy9FZYmKR1jzPp7six9ERL56_aVkmfK1zX_NZeZXlegXht_fnctP0vNJHVgswPl6mQZgWSgLgJrm4PlF3gly1?></g></svg>